<svg id="visual" viewBox="0 0 900 600" width="900" height="600" xmlns="http://www.w3.org/2000/svg" xmlns:xlink="http://www.w3.org/1999/xlink" version="1.1"><rect x="0" y="0" width="900" height="600" fill="#202020"></rect><path d="M0 471L21.5 472.7C43 474.3 86 477.7 128.8 481.2C171.7 484.7 214.3 488.3 257.2 481.7C300 475 343 458 385.8 456.2C428.7 454.3 471.3 467.7 514.2 473.5C557 479.3 600 477.7 642.8 474.7C685.7 471.7 728.3 467.3 771.2 460C814 452.7 857 442.3 878.5 437.2L900 432L900 601L878.5 601C857 601 814 601 771.2 601C728.3 601 685.7 601 642.8 601C600 601 557 601 514.2 601C471.3 601 428.7 601 385.8 601C343 601 300 601 257.2 601C214.3 601 171.7 601 128.8 601C86 601 43 601 21.5 601L0 601Z" fill="#212121"></path><path d="M0 486L21.5 487.3C43 488.7 86 491.3 128.8 495C171.7 498.7 214.3 503.3 257.2 502.5C300 501.7 343 495.3 385.8 489.2C428.7 483 471.3 477 514.2 472.8C557 468.7 600 466.3 642.8 465.5C685.7 464.7 728.3 465.3 771.2 469C814 472.7 857 479.3 878.5 482.7L900 486L900 601L878.5 601C857 601 814 601 771.2 601C728.3 601 685.7 601 642.8 601C600 601 557 601 514.2 601C471.3 601 428.7 601 385.8 601C343 601 300 601 257.2 601C214.3 601 171.7 601 128.8 601C86 601 43 601 21.5 601L0 601Z" fill="#2a2a2a"></path><path d="M0 518L21.5 513.5C43 509 86 500 128.8 500.8C171.7 501.7 214.3 512.3 257.2 514.5C300 516.7 343 510.3 385.8 505.8C428.7 501.3 471.3 498.7 514.2 498.8C557 499 600 502 642.8 500.2C685.7 498.3 728.3 491.7 771.2 492.5C814 493.3 857 501.7 878.5 505.8L900 510L900 601L878.5 601C857 601 814 601 771.2 601C728.3 601 685.7 601 642.8 601C600 601 557 601 514.2 601C471.3 601 428.7 601 385.8 601C343 601 300 601 257.2 601C214.3 601 171.7 601 128.8 601C86 601 43 601 21.5 601L0 601Z" fill="#333333"></path><path d="M0 545L21.5 543.2C43 541.3 86 537.7 128.8 534.3C171.7 531 214.3 528 257.2 526.2C300 524.3 343 523.7 385.8 527C428.7 530.3 471.3 537.7 514.2 542.3C557 547 600 549 642.8 543.3C685.7 537.7 728.3 524.3 771.2 521.3C814 518.3 857 525.7 878.5 529.3L900 533L900 601L878.5 601C857 601 814 601 771.2 601C728.3 601 685.7 601 642.8 601C600 601 557 601 514.2 601C471.3 601 428.7 601 385.8 601C343 601 300 601 257.2 601C214.3 601 171.7 601 128.8 601C86 601 43 601 21.5 601L0 601Z" fill="#3c3c3c"></path><path d="M0 553L21.5 551.5C43 550 86 547 128.8 550.3C171.7 553.7 214.3 563.3 257.2 568C300 572.7 343 572.3 385.8 568.2C428.7 564 471.3 556 514.2 553.5C557 551 600 554 642.8 554.3C685.7 554.7 728.3 552.3 771.2 550.3C814 548.3 857 546.7 878.5 545.8L900 545L900 601L878.5 601C857 601 814 601 771.2 601C728.3 601 685.7 601 642.8 601C600 601 557 601 514.2 601C471.3 601 428.7 601 385.8 601C343 601 300 601 257.2 601C214.3 601 171.7 601 128.8 601C86 601 43 601 21.5 601L0 601Z" fill="#464646"></path></svg>